<svg xmlns="http://www.w3.org/2000/svg" width="280.82" height="168.96"  viewBox="0 0 274.95 47.99"><defs><style>.cls-1{fill:#101010;}.cls-2{fill:#231f20;}.cls-3{fill:#e85a50;}</style></defs><g id="Layer_2" data-name="Layer 2"><g id="Layer_1-2" data-name="Layer 1"><path class="cls-1" d="M7.78,13.05c0,1.17.4,1.75,1.19,1.75a5.49,5.49,0,0,0,.57-.05,3.82,3.82,0,0,1,.56-.06.73.73,0,0,1,.53.22.75.75,0,0,1,.22.53c0,.54-.35.82-1.06.82H9.65l-.16,0-1.15-.16A10.73,10.73,0,0,0,6.87,16a11.84,11.84,0,0,0-1.57.1l-1.17.16-.17,0H3.8c-.69,0-1-.28-1-.82a.66.66,0,0,1,.75-.75,4,4,0,0,1,.56.06,5.58,5.58,0,0,0,.56.05c.78,0,1.17-.58,1.17-1.75V3.54A1.5,1.5,0,0,0,4.1,1.87H3.38A1.47,1.47,0,0,0,1.69,3.51c0,.39,0,.66,0,.8l.1.87c0,.14,0,.33,0,.58,0,1-.3,1.48-.91,1.48S.05,6.88.05,6.16c0-.2,0-.55.05-1,0-.75.07-1.23.07-1.43,0-.39,0-.8,0-1.22A9.58,9.58,0,0,0,.05,1.4c0-.65.3-1,.89-1,.22,0,.72,0,1.52.07l1.92.1H7l2.5,0c.3,0,.81,0,1.52-.06S12.2.42,12.56.42q1.17,0,1.17,1v.05q0,.23-.06.87c0,.42-.08.87-.13,1.35v.26c0,.24,0,.6.07,1.1.06.66.1,1.06.1,1.22,0,.64-.31,1-.92,1S11.9,6.8,11.9,6c0-.28,0-.7.07-1.25S12,3.78,12,3.5c0-1.08-.61-1.63-1.85-1.63H9.54a1.7,1.7,0,0,0-1.24.37,1.8,1.8,0,0,0-.43,1.2L7.78,5.08Z"/><path class="cls-1" d="M22.36,7.12h7.5V3.68c0-1.18-.4-1.76-1.2-1.76a3.21,3.21,0,0,0-.5.05,5.15,5.15,0,0,1-.62,0,.67.67,0,0,1-.75-.76c0-.55.33-.83,1-.83A8.47,8.47,0,0,1,29,.57a9.42,9.42,0,0,0,1.59.15A14.2,14.2,0,0,0,32.92.53a8.52,8.52,0,0,1,.89-.11c.69,0,1,.28,1,.83S34.6,2,34.12,2a4.79,4.79,0,0,1-.56,0A3.63,3.63,0,0,0,33,1.92c-.79,0-1.19.58-1.19,1.76V13c0,1.17.39,1.76,1.17,1.76a4.17,4.17,0,0,0,.58-.06,3.92,3.92,0,0,1,.57-.06.66.66,0,0,1,.73.75c0,.56-.35.85-1,.85a7,7,0,0,1-.91-.14A9,9,0,0,0,31.12,16a14.85,14.85,0,0,0-2.18.14l-1.12.17c-.69,0-1-.28-1-.84a.67.67,0,0,1,.75-.76,5.58,5.58,0,0,1,.56.05,5.58,5.58,0,0,0,.56,0q1,0,1.17-1.29c0-.11,0-.81,0-2.11V8.71h-7.5v2.67c0,1.3,0,2,0,2.11q.2,1.29,1.17,1.29a4.17,4.17,0,0,0,.58-.06,4.21,4.21,0,0,1,.57-.06.65.65,0,0,1,.73.75c0,.56-.35.85-1,.85-.11,0-.45-.05-1-.14a11.61,11.61,0,0,0-2-.19,12.42,12.42,0,0,0-2.11.19l-.56.09-.3.05q-1.08,0-1.08-.84a.76.76,0,0,1,.22-.53.74.74,0,0,1,.53-.23,4.89,4.89,0,0,1,.63.06,2.18,2.18,0,0,0,.49.06c.8,0,1.2-.59,1.2-1.76V3.63c0-1.17-.4-1.76-1.2-1.76a3.87,3.87,0,0,0-.51.07,3,3,0,0,1-.61.07.74.74,0,0,1-.53-.23.76.76,0,0,1-.22-.54c0-.55.36-.82,1.08-.82a6,6,0,0,1,.86.12A12.3,12.3,0,0,0,21.49.7,10.22,10.22,0,0,0,23,.56,11.75,11.75,0,0,1,24.4.42c.68,0,1,.28,1,.83a.73.73,0,0,1-.21.54A.69.69,0,0,1,24.7,2a5.6,5.6,0,0,1-.63,0,3.86,3.86,0,0,0-.52-.06c-.76,0-1.15.58-1.17,1.75Z"/><path class="cls-1" d="M45.23,16.65a6,6,0,0,1-4.93-2.24,9.42,9.42,0,0,1-1.81-6.09,9.32,9.32,0,0,1,1.82-6.11,6.2,6.2,0,0,1,5-2.21,6.07,6.07,0,0,1,4.88,2.15A8.8,8.8,0,0,1,52.05,8a9.94,9.94,0,0,1-1.84,6.32A6,6,0,0,1,45.23,16.65Zm.05-15a4,4,0,0,0-3.49,1.73,8.25,8.25,0,0,0-1.24,4.87,8.37,8.37,0,0,0,1.24,4.93,4.25,4.25,0,0,0,6.92-.07A8.43,8.43,0,0,0,50,8.22a8.26,8.26,0,0,0-1.22-4.84A4,4,0,0,0,45.28,1.69Z"/><path class="cls-1" d="M62.72,2.18,66.32,14l4-12.63c.21-.65.56-1,1.06-1h.11a3.15,3.15,0,0,1,.61.07,3.47,3.47,0,0,0,.61.12,9,9,0,0,0,1,.05A7.46,7.46,0,0,0,74.8.59l.83-.15a1.35,1.35,0,0,1,.28,0c.71,0,1.07.27,1.07.82a.66.66,0,0,1-.75.75,3.71,3.71,0,0,1-.55-.06,3.58,3.58,0,0,0-.55-.06c-.79,0-1.19.59-1.19,1.76V13c0,1.17.39,1.76,1.17,1.76a2,2,0,0,0,.52-.07l.6-.05a.66.66,0,0,1,.75.75c0,.56-.33.85-1,.85l-.35-.05A23.5,23.5,0,0,0,72.88,16a12.94,12.94,0,0,0-2.1.17,5.8,5.8,0,0,1-.75.07c-.61,0-.92-.27-.92-.79s.32-.81,1-.81a1.56,1.56,0,0,1,.35,0c.35.05.55.07.62.07.56,0,.92-.59,1.06-1.76,0-.25,0-1,0-2.38,0-.52,0-1.26,0-2.25V2.13c0-.09,0-.14-.12-.14s-.09.05-.14.14L67.61,15.49a1.22,1.22,0,0,1-1.31.88,1.89,1.89,0,0,1-.9-.17,1.21,1.21,0,0,1-.46-.71L60.7,2.13c0-.09-.1-.14-.16-.14s-.09.05-.09.14L60.59,13c0,1.14.32,1.7.93,1.7h1c.61,0,.91.27.91.8s-.31.8-.94.8a4.21,4.21,0,0,1-.49-.05l-1.1-.16A7.66,7.66,0,0,0,59.7,16a10.92,10.92,0,0,0-1.67.08l-1,.18-.14,0h-.14c-.72,0-1.08-.28-1.08-.82a.77.77,0,0,1,.21-.55.68.68,0,0,1,.52-.23,3.93,3.93,0,0,1,.61.07,2.58,2.58,0,0,0,.51.07c.8,0,1.2-.58,1.2-1.75V3.63c0-1.17-.4-1.76-1.2-1.76a4,4,0,0,0-.56.06,4,4,0,0,1-.56.06.65.65,0,0,1-.73-.75c0-.55.35-.82,1.05-.82l.31,0,.82.1A9.32,9.32,0,0,0,59,.61a9.08,9.08,0,0,0,1.2-.1A10.66,10.66,0,0,1,61.34.42c.6,0,1,.38,1.21,1.15Z"/><path class="cls-1" d="M93.06,13.49l-.84-2.29a1,1,0,0,0-.29-.47,1.41,1.41,0,0,0-.63-.1H87.13a.94.94,0,0,0-.64.17,2.78,2.78,0,0,0-.46.89l-.68,1.8a1.5,1.5,0,0,0-.09.49c0,.5.3.75.91.75a6.62,6.62,0,0,0,.67,0c.29,0,.5,0,.65,0,.64,0,1,.27,1,.82s-.35.77-1.06.77a3.75,3.75,0,0,1-.51,0L85.71,16a9.3,9.3,0,0,0-1.08,0,10.17,10.17,0,0,0-1.15,0l-1,.11a7.49,7.49,0,0,1-1,.08c-.61,0-.92-.26-.92-.77s.3-.82.89-.82a.38.38,0,0,1,.28.09h.31a1.08,1.08,0,0,0,1-.49,6.14,6.14,0,0,0,.47-1.11L87.88,1.31a1.45,1.45,0,0,1,1.48-1,1.39,1.39,0,0,1,1.43,1L95,12.93a4.68,4.68,0,0,0,.73,1.45,1.2,1.2,0,0,0,.94.35,1,1,0,0,0,.28,0l.65-.06c.59,0,.89.26.89.77s-.3.82-.89.82a4.8,4.8,0,0,1-.68-.05A19.82,19.82,0,0,0,94.7,16c-.58,0-1.51.06-2.81.19-.33,0-.58,0-.75,0-.63,0-.94-.26-.94-.79s.35-.8,1-.8c.14,0,.35,0,.62,0a6.14,6.14,0,0,0,.62,0q.78,0,.78-.63A3.11,3.11,0,0,0,93.06,13.49ZM91.37,8.71l-2.1-6.46L87.11,8.71a1.47,1.47,0,0,0,0,.17c0,.14.12.21.35.21h3.73c.19,0,.28-.06.28-.19A1.06,1.06,0,0,0,91.37,8.71Z"/><path class="cls-1" d="M107.9,0a5,5,0,0,1,3.74,1.48V1.15c0-.61.25-.92.73-.92s.8.34.8,1v.14s0,.27-.07.7A14.23,14.23,0,0,0,113,3.65c0,.08,0,.33,0,.75l.08.94a2.63,2.63,0,0,1,0,.33c0,.75-.29,1.12-.87,1.12a.81.81,0,0,1-.91-.93V5.74l0-.63c0-.22,0-.39,0-.52a2.72,2.72,0,0,0-.95-2.2,3.93,3.93,0,0,0-2.61-.8,3.68,3.68,0,0,0-2.43.75,2.49,2.49,0,0,0-.9,2,2.3,2.3,0,0,0,1.34,2.17,10,10,0,0,0,2.62.68,9.38,9.38,0,0,1,3.82,1.22,3.82,3.82,0,0,1,1.54,3.26,4.53,4.53,0,0,1-1.57,3.58,6,6,0,0,1-4.08,1.38A6.13,6.13,0,0,1,103.82,15v.34a2.72,2.72,0,0,1,.09.49.75.75,0,0,1-.86.85c-.63,0-.94-.32-.94-1a.29.29,0,0,1,.07-.19l.11-1.22c0-.61.08-1,.08-1.17a10.51,10.51,0,0,0-.13-1.4,12.7,12.7,0,0,1-.13-1.41c0-.7.3-1,.89-1s.91.35.91,1.06v1a3.62,3.62,0,0,0,1.13,2.8,4.28,4.28,0,0,0,3,1,4.4,4.4,0,0,0,2.83-.84,2.79,2.79,0,0,0,1-2.3c0-1.48-.94-2.38-2.81-2.71L107.8,9a14.27,14.27,0,0,1-3.09-.82,3.48,3.48,0,0,1-1.6-1.39,3.92,3.92,0,0,1-.6-2.14A4.2,4.2,0,0,1,104,1.29,5.76,5.76,0,0,1,107.9,0Z"/><path class="cls-1" d="M132.37,0a5.23,5.23,0,0,1,4.24,2V1.46a1,1,0,0,1-.05-.17c0-.35,0-.51,0-.48q0-.81.72-.81c.52,0,.78.33.78,1,0,.13,0,.5-.05,1.13a14.43,14.43,0,0,0-.14,1.61A9.31,9.31,0,0,0,137.91,5l.11.89v.24c0,.7-.29,1.05-.85,1.05s-.9-.33-.89-1V5.35a3.43,3.43,0,0,0-1.05-2.71,4,4,0,0,0-2.87-1,4.26,4.26,0,0,0-3.62,1.78,8.12,8.12,0,0,0-1.31,4.92,8.21,8.21,0,0,0,1.34,5,4.43,4.43,0,0,0,3.76,1.79,4.48,4.48,0,0,0,2.36-.63,3.44,3.44,0,0,0,1.46-1.66,4.82,4.82,0,0,0,.28-1.83c0-.72.3-1.08.89-1.08s1,.36,1,1.08a5.3,5.3,0,0,1-1.73,4.1,6.37,6.37,0,0,1-4.47,1.59,6.28,6.28,0,0,1-5-2.22,8.85,8.85,0,0,1-1.89-5.93,9.37,9.37,0,0,1,1.94-6.16A6.26,6.26,0,0,1,132.37,0Z"/><path class="cls-1" d="M154.56,13.49l-.84-2.29a.92.92,0,0,0-.29-.47,1.39,1.39,0,0,0-.62-.1h-4.17a1,1,0,0,0-.65.17,2.78,2.78,0,0,0-.46.89l-.67,1.8a1.3,1.3,0,0,0-.1.49c0,.5.31.75.92.75.15,0,.37,0,.66,0s.51,0,.65,0c.64,0,1,.27,1,.82s-.35.77-1.06.77a3.87,3.87,0,0,1-.51,0L147.21,16a9.3,9.3,0,0,0-1.08,0A10.17,10.17,0,0,0,145,16l-1,.11a7.49,7.49,0,0,1-1,.08c-.61,0-.92-.26-.92-.77s.3-.82.89-.82a.38.38,0,0,1,.28.09h.31a1.08,1.08,0,0,0,1-.49,6.14,6.14,0,0,0,.47-1.11l4.36-11.82a1.44,1.44,0,0,1,1.47-1,1.38,1.38,0,0,1,1.43,1l4.19,11.62a4.68,4.68,0,0,0,.73,1.45,1.2,1.2,0,0,0,.94.35,1,1,0,0,0,.28,0l.65-.06c.6,0,.89.26.89.77s-.29.82-.89.82a4.8,4.8,0,0,1-.68-.05,19.82,19.82,0,0,0-2.2-.18c-.57,0-1.51.06-2.81.19-.33,0-.58,0-.75,0-.62,0-.94-.26-.94-.79s.35-.8,1-.8c.14,0,.34,0,.62,0a5.82,5.82,0,0,0,.62,0c.51,0,.77-.21.77-.63A3.11,3.11,0,0,0,154.56,13.49Zm-1.68-4.78-2.11-6.46-2.16,6.46a.81.81,0,0,0,0,.17c0,.14.11.21.35.21h3.72c.19,0,.28-.06.28-.19A.77.77,0,0,0,152.88,8.71Z"/><path class="cls-1" d="M168.62,12.71c0,.91.1,1.46.29,1.63a.91.91,0,0,0,.55.25,12.31,12.31,0,0,0,1.53.05h2.06a3.71,3.71,0,0,0,2.16-.43,2.13,2.13,0,0,0,.54-1.72q0-.35,0-.81c0-.6,0-1,0-1.08,0-.68.27-1,.82-1s1,.31,1,.94c0,.18,0,.33,0,.44l-.17,1.2a9.16,9.16,0,0,0-.07,1.07c0,.22,0,.55.06,1s.06.75.06,1c0,.7-.4,1.05-1.19,1.05-.16,0-.52,0-1.08-.08-.38,0-.95,0-1.74-.08h-5.5c-.38,0-1,0-1.87.09-.13,0-.35,0-.65,0l-.71,0q-1,0-1-.84a.66.66,0,0,1,.73-.75,3.07,3.07,0,0,1,.56.07,3.07,3.07,0,0,0,.56.07c.8,0,1.2-.59,1.2-1.76V3.63c0-1.16-.4-1.73-1.2-1.73a2.08,2.08,0,0,0-.49,0,3.25,3.25,0,0,1-.63.07.69.69,0,0,1-.52-.22.77.77,0,0,1-.21-.55c0-.55.34-.82,1-.82l.35,0,1.24.15c.69.07,1.2.11,1.52.11a13.21,13.21,0,0,0,1.5-.11l1.08-.15.31,0c.7,0,1,.27,1,.82a.77.77,0,0,1-.21.55.67.67,0,0,1-.52.22,3.6,3.6,0,0,1-.63-.07,2,2,0,0,0-.49,0c-.8,0-1.2.57-1.2,1.72Z"/><path class="cls-1" d="M184.16,3.63c0-1.17-.39-1.76-1.19-1.76a3.25,3.25,0,0,0-.49,0,3.8,3.8,0,0,1-.63.07.65.65,0,0,1-.73-.75c0-.55.35-.82,1-.82l.31,0,1.24.17a11.86,11.86,0,0,0,1.5.09,11.62,11.62,0,0,0,1.31-.07l1.52-.16c.3,0,.69,0,1.17,0a9,9,0,0,1,3.56.61,6.09,6.09,0,0,1,3,2.76,9.39,9.39,0,0,1,1.09,4.57A9.59,9.59,0,0,1,196,12.5a5.91,5.91,0,0,1-2.37,2.7,8.5,8.5,0,0,1-4.35,1.06c-.35,0-.7,0-1.06-.05l-1.61-.14C186,16,185.46,16,184.87,16a8.83,8.83,0,0,0-1.27.07l-1.12.16-.17,0h-.18c-.67,0-1-.28-1-.82a.77.77,0,0,1,.21-.55.68.68,0,0,1,.52-.23,4.29,4.29,0,0,1,.63.07,1.93,1.93,0,0,0,.49,0c.8,0,1.19-.59,1.19-1.76Zm2-.24v9.87a1.22,1.22,0,0,0,1.06,1.31,11.72,11.72,0,0,0,2,.09,5,5,0,0,0,4.08-1.51,7.29,7.29,0,0,0,1.52-4.81,7.94,7.94,0,0,0-.92-4,4.26,4.26,0,0,0-2.54-2.09A9,9,0,0,0,188.8,2a6.89,6.89,0,0,0-2.26.21C186.27,2.34,186.13,2.74,186.13,3.39Z"/><path class="cls-1" d="M205.68,4.12,207.6,14,210,1.85c.2-1.06.73-1.59,1.57-1.59a1.49,1.49,0,0,1,1.59,1.4l2.34,12.53,2-9.72a8.48,8.48,0,0,0,.21-1.57.86.86,0,0,0-1-1c-.14,0-.34,0-.61.05a5.86,5.86,0,0,1-.61.05c-.67,0-1-.28-1-.82s.33-.8,1-.8a7.11,7.11,0,0,1,.78,0c1.27.15,2.12.23,2.52.23a9.23,9.23,0,0,0,1.4-.14,10.65,10.65,0,0,1,1.39-.14.76.76,0,0,1,.87.85c0,.51-.28.77-.85.77a2.28,2.28,0,0,1-.42-.06,2.08,2.08,0,0,0-.42-.06.76.76,0,0,0-.71.38A6.82,6.82,0,0,0,219.52,4L216.9,15.16a1.43,1.43,0,0,1-1.45,1.28q-1.23,0-1.53-1.59L211.56,2.46,209,15.18c-.18.84-.62,1.26-1.34,1.26s-1.2-.43-1.4-1.28L203.43,3.49a2.64,2.64,0,0,0-.53-1.21,1.36,1.36,0,0,0-1-.31h-.16l-.51.07c-.5,0-.75-.26-.75-.79a.73.73,0,0,1,.82-.83,4.44,4.44,0,0,1,.75.07,15,15,0,0,0,2.46.21c.37,0,1.23-.08,2.57-.23a5.45,5.45,0,0,1,.68,0c.56,0,.84.26.84.77s-.34.85-1,.85c-.14,0-.35,0-.64-.05s-.5-.05-.64-.05c-.55,0-.82.26-.82.78a3.36,3.36,0,0,0,.07.65Z"/><path class="cls-1" d="M229.13,3.63c0-1.16-.39-1.73-1.19-1.73a2,2,0,0,0-.49,0,3.25,3.25,0,0,1-.63.07.67.67,0,0,1-.52-.22.77.77,0,0,1-.21-.55c0-.55.33-.82,1-.82l.35,0q3.5.24,3.27.24h.23l5.63-.17,1.21-.07.68,0c.81,0,1.21.36,1.21,1.08,0,.12,0,.52-.07,1.19,0,.5-.05,1-.05,1.39s0,.92,0,1.14a8.11,8.11,0,0,1,.08,1c0,.59-.28.89-.83.89S238,6.71,238,5.88V4.66c0-1.31-.27-2.08-.82-2.32A11,11,0,0,0,234,2.08a15.92,15.92,0,0,0-2,.07,1.29,1.29,0,0,0-1,1.41V5.9c0,.63.13,1,.41,1.08A2.29,2.29,0,0,0,232,7H233c1,0,1.46-.34,1.46-1a5.72,5.72,0,0,0-.06-.73,5.91,5.91,0,0,1-.06-.79c0-.63.28-.94.83-.94s.83.34.83,1c0,.12-.05.61-.15,1.45a17.65,17.65,0,0,0-.13,1.9c0,.31,0,.86.1,1.66,0,.13.05.4.11.82a5.86,5.86,0,0,1,.07.82.74.74,0,0,1-.84.84c-.55,0-.82-.32-.82-1a6.78,6.78,0,0,1,.06-.75,6.78,6.78,0,0,0,.06-.75c0-.67-.45-1-1.34-1H232c-.46,0-.73.08-.83.24a2,2,0,0,0-.15,1v1.46c0,.25,0,.58,0,1s0,.86,0,1c0,.63.14,1,.38,1.18a2.72,2.72,0,0,0,1.21.16h3.19a3.23,3.23,0,0,0,1.9-.41,1.87,1.87,0,0,0,.51-1.53q0-.36,0-1c0-.46,0-.8,0-1,0-.7.28-1,.83-1s.88.36.88,1.07c0,.29,0,.71,0,1.29s0,1,0,1.29,0,.54,0,1,0,.76,0,1a1,1,0,0,1-1.07,1.1c-.18,0-.45,0-.82-.05-.19,0-.54,0-1,0l-1.82-.05c-1.33,0-2.48-.05-3.45-.05-1.46,0-2.9.05-4.31.14l-.21,0h-.14c-.65,0-1-.29-1-.85a.65.65,0,0,1,.73-.75l.63.05a1.71,1.71,0,0,0,.49.07c.8,0,1.19-.59,1.19-1.76Z"/><path class="cls-1" d="M248.58,12.71c0,.91.1,1.46.29,1.63a.91.91,0,0,0,.55.25,12.31,12.31,0,0,0,1.53.05H253a3.71,3.71,0,0,0,2.16-.43,2.13,2.13,0,0,0,.54-1.72q0-.35,0-.81c0-.6,0-1,0-1.08,0-.68.27-1,.82-1s1,.31,1,.94c0,.18,0,.33,0,.44l-.17,1.2a7.4,7.4,0,0,0-.07,1.07c0,.22,0,.55.06,1s.06.75.06,1q0,1.05-1.2,1.05c-.15,0-.51,0-1.07-.08-.38,0-1,0-1.74-.08h-5.5c-.38,0-1,0-1.87.09-.13,0-.35,0-.65,0l-.71,0q-1,0-1-.84a.65.65,0,0,1,.73-.75,3.07,3.07,0,0,1,.56.07,3.07,3.07,0,0,0,.56.07c.8,0,1.2-.59,1.2-1.76V3.63c0-1.16-.4-1.73-1.2-1.73a2,2,0,0,0-.49,0,3.25,3.25,0,0,1-.63.07.67.67,0,0,1-.52-.22.77.77,0,0,1-.21-.55c0-.55.34-.82,1-.82l.35,0,1.24.15c.69.07,1.2.11,1.52.11a13.21,13.21,0,0,0,1.5-.11l1.08-.15.31,0c.7,0,1,.27,1,.82a.77.77,0,0,1-.21.55.67.67,0,0,1-.52.22,3.6,3.6,0,0,1-.63-.07,2,2,0,0,0-.49,0c-.8,0-1.2.57-1.2,1.72Z"/><path class="cls-1" d="M266.09,12.71c0,.91.1,1.46.28,1.63a.94.94,0,0,0,.55.25,12.51,12.51,0,0,0,1.54.05h2.06a3.67,3.67,0,0,0,2.15-.43,2.13,2.13,0,0,0,.54-1.72c0-.23,0-.5,0-.81,0-.6-.05-1-.05-1.08,0-.68.27-1,.82-1s1,.31,1,.94a2.59,2.59,0,0,1,0,.44l-.16,1.2a7.4,7.4,0,0,0-.07,1.07c0,.22,0,.55.06,1s.06.75.06,1q0,1.05-1.2,1.05c-.16,0-.51,0-1.08-.08-.37,0-.95,0-1.73-.08h-5.5c-.38,0-1,0-1.88.09-.12,0-.34,0-.64,0l-.72,0c-.65,0-1-.28-1-.84a.65.65,0,0,1,.73-.75,3.07,3.07,0,0,1,.56.07,3,3,0,0,0,.56.07c.79,0,1.19-.59,1.19-1.76V3.63c0-1.16-.4-1.73-1.19-1.73a2,2,0,0,0-.49,0,3.25,3.25,0,0,1-.63.07.67.67,0,0,1-.52-.22.77.77,0,0,1-.21-.55c0-.55.33-.82,1-.82l.35,0,1.24.15c.69.07,1.19.11,1.52.11a13.21,13.21,0,0,0,1.5-.11l1.08-.15.3,0c.71,0,1.06.27,1.06.82a.77.77,0,0,1-.21.55.69.69,0,0,1-.52.22,3.42,3.42,0,0,1-.63-.07,2,2,0,0,0-.49,0c-.8,0-1.2.57-1.2,1.72Z"/><path class="cls-2" d="M95.06,28.86c0,3.49-2.52,5.6-6.69,5.6H84v5.17H82.23V23.24h6.14C92.54,23.24,95.06,25.35,95.06,28.86Zm-1.73,0c0-2.62-1.73-4.12-5-4.12H84v8.2h4.35C91.6,32.94,93.33,31.44,93.33,28.86Z"/><path class="cls-2" d="M98.92,33.47a6.26,6.26,0,0,1,12.52,0,6.26,6.26,0,1,1-12.52,0Zm10.83,0a4.58,4.58,0,1,0-9.15,0,4.58,4.58,0,1,0,9.15,0Z"/><path class="cls-2" d="M122.8,27.22v1.62l-.39,0c-2.58,0-4.15,1.64-4.15,4.54v6.27H116.6V27.32h1.59v2.41C119,28.09,120.53,27.22,122.8,27.22Z"/><path class="cls-2" d="M134.59,38.88a4,4,0,0,1-2.6.87,3.26,3.26,0,0,1-3.61-3.58V28.72h-2.2v-1.4h2.2V24.63H130v2.69h3.75v1.4H130v7.35a2,2,0,0,0,2.13,2.25,2.77,2.77,0,0,0,1.83-.63Z"/><path class="cls-2" d="M141.26,25.87v1.45h3.8v1.4h-3.75V39.63h-1.66V28.72h-2.2v-1.4h2.2V25.8a3.39,3.39,0,0,1,3.72-3.66,3.89,3.89,0,0,1,2.46.78l-.56,1.24a2.82,2.82,0,0,0-1.83-.61C142,23.55,141.26,24.34,141.26,25.87Z"/><path class="cls-2" d="M147.61,33.47a6.27,6.27,0,0,1,12.53,0,6.27,6.27,0,1,1-12.53,0Zm10.84,0a4.58,4.58,0,1,0-9.15,0,4.58,4.58,0,1,0,9.15,0Z"/><path class="cls-2" d="M165.3,22.26H167V39.63H165.3Z"/><path class="cls-2" d="M173,23.43a1.2,1.2,0,0,1,1.22-1.17,1.19,1.19,0,0,1,1.22,1.15,1.22,1.22,0,0,1-2.44,0Zm.38,3.89H175V39.63h-1.66Z"/><path class="cls-2" d="M180.17,33.47a6.27,6.27,0,0,1,12.53,0,6.27,6.27,0,1,1-12.53,0Zm10.84,0a4.58,4.58,0,1,0-9.15,0,4.58,4.58,0,1,0,9.15,0Z"/><rect class="cls-2" x="0.03" y="30.46" width="69.98" height="0.98"/><rect class="cls-2" x="204.93" y="30.46" width="69.98" height="0.98"/><path class="cls-3" d="M.89,46.61h274a0,0,0,0,1,0,0v.49A.88.88,0,0,1,274,48H0a0,0,0,0,1,0,0V47.5A.89.89,0,0,1,.89,46.61Z"/></g></g></svg>