<svg xmlns="http://www.w3.org/2000/svg" width="280.82" height="168.96" viewBox="0 0 140.82 44.83"><defs><style>.cls-1{fill:none;stroke:#231f20;stroke-miterlimit:10;stroke-width:0.81px;}.cls-2{fill:#101010;}.cls-3{fill:#e85a50;}</style></defs><g id="Layer_2" data-name="Layer 2"><g id="Layer_1-2" data-name="Layer 1"><path class="cls-1" d="M24,41.17c7.47,0,7.47,3.25,14.94,3.25s7.46-3.25,14.93-3.25,7.47,3.25,14.93,3.25,7.47-3.25,14.94-3.25,7.47,3.25,14.94,3.25,7.47-3.25,14.93-3.25"/><path class="cls-1" d="M24,.41C31.48.41,31.48,3.65,39,3.65S46.41.41,53.88.41s7.47,3.24,14.93,3.24S76.28.41,83.75.41s7.47,3.24,14.94,3.24S106.16.41,113.62.41"/><path class="cls-2" d="M4,18.39c0,.6.2.9.61.9l.29,0,.29,0a.36.36,0,0,1,.27.11.4.4,0,0,1,.11.27Q5.53,20,5,20H4.84l-.59-.09a5.92,5.92,0,0,0-.76,0,6.37,6.37,0,0,0-.8,0l-.6.09H1.92c-.35,0-.53-.14-.53-.42s.13-.38.39-.38l.28,0,.29,0q.6,0,.6-.9V13.51a.76.76,0,0,0-.87-.85H1.7a.75.75,0,0,0-.86.84,4,4,0,0,0,0,.41l.05.44a2.63,2.63,0,0,1,0,.3c0,.51-.15.76-.47.76S0,15.23,0,14.86c0-.11,0-.29,0-.54s0-.63,0-.73,0-.41,0-.63c0-.42,0-.6,0-.54,0-.33.15-.5.46-.5l.77,0,1,.05H3.58l1.28,0,.78,0,.77,0c.4,0,.6.16.6.49v0q0,.12,0,.45c0,.21,0,.45-.07.69v.14a5.08,5.08,0,0,0,0,.56c0,.34,0,.54,0,.62,0,.33-.16.5-.47.5s-.46-.21-.46-.61a6.29,6.29,0,0,1,0-.64c0-.29,0-.5,0-.65,0-.55-.31-.83-.94-.83H4.86a.88.88,0,0,0-.64.19.91.91,0,0,0-.21.62l0,.84Z"/><path class="cls-2" d="M11.43,15.35h3.84V13.59c0-.6-.21-.9-.61-.9a1.49,1.49,0,0,0-.26,0,2,2,0,0,1-.32,0c-.26,0-.38-.13-.38-.39s.17-.42.51-.42a3.32,3.32,0,0,1,.61.08,5,5,0,0,0,.82.07,6.94,6.94,0,0,0,1.2-.1l.46-.05c.35,0,.53.14.53.42a.34.34,0,0,1-.38.39,1.8,1.8,0,0,1-.29,0,1.63,1.63,0,0,0-.28,0c-.41,0-.62.3-.62.9v4.78q0,.9.6.9l.3,0,.29,0a.34.34,0,0,1,.38.39c0,.29-.18.43-.53.43a2.85,2.85,0,0,1-.47-.07,4.39,4.39,0,0,0-.91-.09A7,7,0,0,0,14.8,20l-.58.08c-.35,0-.52-.14-.52-.43s.12-.39.38-.39l.29,0,.29,0q.5,0,.6-.66c0-.05,0-.41,0-1.08V16.17H11.43v1.36c0,.67,0,1,0,1.08q.09.66.6.66l.29,0,.3,0c.25,0,.37.13.37.39s-.18.43-.53.43A4.28,4.28,0,0,1,12,20a5.72,5.72,0,0,0-1-.1,6,6,0,0,0-1.08.1L9.58,20l-.16,0c-.36,0-.55-.14-.55-.43A.37.37,0,0,1,9,19.33a.34.34,0,0,1,.27-.12l.32,0,.25,0c.41,0,.61-.3.61-.9V13.56c0-.6-.2-.9-.61-.9a1.16,1.16,0,0,0-.26,0l-.31,0A.34.34,0,0,1,9,12.61a.37.37,0,0,1-.12-.27c0-.28.19-.42.55-.42a3.25,3.25,0,0,1,.45.06,6.84,6.84,0,0,0,1.11.08,5.28,5.28,0,0,0,.75-.07,5.42,5.42,0,0,1,.74-.07c.35,0,.53.14.53.42a.39.39,0,0,1-.11.28.33.33,0,0,1-.26.11l-.33,0-.26,0q-.58,0-.6.9Z"/><path class="cls-2" d="M23.15,20.23a3.07,3.07,0,0,1-2.53-1.15A4.83,4.83,0,0,1,19.69,16a4.71,4.71,0,0,1,.94-3.12,3.15,3.15,0,0,1,2.58-1.14,3.1,3.1,0,0,1,2.5,1.11,4.47,4.47,0,0,1,.93,3A5.16,5.16,0,0,1,25.7,19,3.08,3.08,0,0,1,23.15,20.23Zm0-7.66a2.08,2.08,0,0,0-1.79.88,4.3,4.3,0,0,0-.63,2.5,4.36,4.36,0,0,0,.63,2.53,2.19,2.19,0,0,0,3.55,0,4.37,4.37,0,0,0,.65-2.53A4.23,4.23,0,0,0,25,13.44,2.07,2.07,0,0,0,23.17,12.57Z"/><path class="cls-2" d="M32.1,12.82,34,18.89l2-6.47c.1-.33.28-.5.54-.5h.06l.31,0,.31.06a3.7,3.7,0,0,0,.53,0,2.73,2.73,0,0,0,.56,0l.43-.07h.14c.37,0,.55.14.55.42a.34.34,0,0,1-.38.38l-.29,0-.28,0c-.4,0-.61.3-.61.9v4.81q0,.9.6.9l.27,0,.31,0a.34.34,0,0,1,.38.39c0,.29-.17.43-.51.43l-.18,0a11.57,11.57,0,0,0-1.41-.1,7.51,7.51,0,0,0-1.08.08,1.82,1.82,0,0,1-.38,0c-.32,0-.47-.13-.47-.4s.16-.42.48-.42l.18,0,.32,0q.44,0,.54-.9c0-.12,0-.53,0-1.22,0-.26,0-.64,0-1.15v-3.2s0-.07-.06-.07,0,0-.07.07l-2.21,6.85a.62.62,0,0,1-.67.45.91.91,0,0,1-.46-.09.63.63,0,0,1-.24-.36l-2.17-6.85s-.05-.07-.08-.07,0,0,0,.07L31,18.34q0,.87.48.87H32c.32,0,.47.14.47.41S32.3,20,32,20l-.25,0-.56-.09a5.16,5.16,0,0,0-.61,0,7.32,7.32,0,0,0-.86,0l-.5.1h-.14c-.37,0-.56-.14-.56-.42a.39.39,0,0,1,.11-.28.34.34,0,0,1,.26-.12,2.14,2.14,0,0,1,.32,0l.26,0c.41,0,.61-.3.61-.9V13.56c0-.6-.2-.9-.61-.9l-.29,0-.29,0a.34.34,0,0,1-.37-.38q0-.42.54-.42h.16l.42.05.59,0a5.38,5.38,0,0,0,.61,0,3.83,3.83,0,0,1,.58-.05c.31,0,.51.19.62.59Z"/><path class="cls-2" d="M47.65,18.61l-.44-1.17a.43.43,0,0,0-.14-.24.75.75,0,0,0-.32-.05H44.61a.53.53,0,0,0-.33.08,1.42,1.42,0,0,0-.23.46l-.35.92a.85.85,0,0,0-.05.26c0,.25.16.38.47.38l.34,0,.33,0c.33,0,.49.14.49.42s-.18.4-.54.4l-.26,0-.6-.07-.55,0a4.31,4.31,0,0,0-.59,0l-.5.06a4,4,0,0,1-.5,0c-.31,0-.46-.13-.46-.4s.15-.42.45-.42a.2.2,0,0,1,.14.05H42a.54.54,0,0,0,.49-.25,3.08,3.08,0,0,0,.24-.57l2.24-6a.72.72,0,0,1,.75-.51.71.71,0,0,1,.73.5l2.15,6a2.58,2.58,0,0,0,.37.74.65.65,0,0,0,.48.18l.15,0,.33,0c.31,0,.46.13.46.4S50.27,20,50,20l-.34,0a10.61,10.61,0,0,0-1.13-.09q-.45,0-1.44.09l-.39,0c-.32,0-.48-.14-.48-.41s.18-.41.53-.41l.32,0,.32,0c.26,0,.39-.11.39-.32A1.64,1.64,0,0,0,47.65,18.61Zm-.87-2.44L45.7,12.85l-1.1,3.32a.17.17,0,0,0,0,.08c0,.07.05.11.17.11h1.91c.1,0,.15,0,.15-.1A.29.29,0,0,0,46.78,16.17Z"/><path class="cls-2" d="M55.25,11.7a2.57,2.57,0,0,1,1.92.76v-.17c0-.31.12-.47.37-.47s.41.17.41.52v.07s0,.14,0,.36,0,.49,0,.8c0,0,0,.17,0,.39l0,.48s0,.09,0,.17q0,.57-.45.57c-.31,0-.46-.16-.46-.48v-.06l0-.32c0-.11,0-.2,0-.27a1.38,1.38,0,0,0-.48-1.12,2,2,0,0,0-1.34-.41A1.89,1.89,0,0,0,54,12.9a1.28,1.28,0,0,0-.47,1,1.18,1.18,0,0,0,.69,1.12,5.23,5.23,0,0,0,1.34.35,4.8,4.8,0,0,1,2,.62,2,2,0,0,1,.79,1.67,2.35,2.35,0,0,1-.81,1.84,3.05,3.05,0,0,1-2.09.7,3.11,3.11,0,0,1-2.26-.86v.18a1.48,1.48,0,0,1,.05.25c0,.29-.15.43-.45.43s-.48-.16-.48-.5a.18.18,0,0,1,0-.1l0-.62c0-.31.05-.51.05-.6a7,7,0,0,0-.07-.72,7,7,0,0,1-.07-.72c0-.36.16-.54.46-.54s.47.18.47.54v.5a1.85,1.85,0,0,0,.57,1.43,2.23,2.23,0,0,0,1.56.53A2.26,2.26,0,0,0,56.79,19a1.45,1.45,0,0,0,.53-1.18c0-.76-.48-1.22-1.44-1.39l-.68-.12a7.42,7.42,0,0,1-1.58-.42,1.85,1.85,0,0,1-.83-.71,2.06,2.06,0,0,1-.3-1.1,2.13,2.13,0,0,1,.77-1.72A2.93,2.93,0,0,1,55.25,11.7Z"/><path class="cls-2" d="M67.78,11.7a2.7,2.7,0,0,1,2.18,1v-.27l0-.08a2.25,2.25,0,0,0,0-.25c0-.28.12-.42.37-.42s.4.17.4.51q0,.09,0,.57a7.61,7.61,0,0,0-.07.83,4.87,4.87,0,0,0,0,.66l.06.46v.12c0,.36-.15.54-.44.54s-.46-.17-.45-.52v-.42a1.81,1.81,0,0,0-.54-1.4,2.09,2.09,0,0,0-1.47-.53,2.18,2.18,0,0,0-1.86.91A4.24,4.24,0,0,0,65.25,16a4.17,4.17,0,0,0,.69,2.56,2.46,2.46,0,0,0,3.13.6,1.73,1.73,0,0,0,.75-.86,2.38,2.38,0,0,0,.15-.93c0-.37.15-.55.45-.55s.5.18.5.55a2.75,2.75,0,0,1-.89,2.1,3.27,3.27,0,0,1-2.29.81,3.22,3.22,0,0,1-2.59-1.14,4.55,4.55,0,0,1-1-3,4.8,4.8,0,0,1,1-3.16A3.22,3.22,0,0,1,67.78,11.7Z"/><path class="cls-2" d="M79.15,18.61l-.43-1.17a.49.49,0,0,0-.15-.24.72.72,0,0,0-.32-.05H76.12a.53.53,0,0,0-.33.08,1.6,1.6,0,0,0-.24.46l-.34.92a.63.63,0,0,0,0,.26c0,.25.15.38.46.38l.35,0,.33,0c.32,0,.49.14.49.42s-.18.4-.54.4L76,20l-.61-.07-.55,0a4.14,4.14,0,0,0-.58,0l-.51.06a3.87,3.87,0,0,1-.49,0c-.31,0-.47-.13-.47-.4s.15-.42.46-.42a.2.2,0,0,1,.14.05h.16A.55.55,0,0,0,74,19a3.08,3.08,0,0,0,.24-.57l2.23-6a.74.74,0,0,1,.76-.51.72.72,0,0,1,.73.5l2.15,6a2.34,2.34,0,0,0,.37.74.62.62,0,0,0,.48.18l.14,0,.34,0c.3,0,.45.13.45.4s-.15.42-.45.42l-.35,0A10.42,10.42,0,0,0,80,19.9q-.43,0-1.44.09l-.38,0c-.32,0-.48-.14-.48-.41s.18-.41.53-.41l.32,0,.31,0c.27,0,.4-.11.4-.32A1.32,1.32,0,0,0,79.15,18.61Zm-.86-2.44-1.08-3.32L76.1,16.17s0,.07,0,.08.06.11.18.11h1.91c.09,0,.14,0,.14-.1A.81.81,0,0,0,78.29,16.17Z"/><path class="cls-2" d="M86.36,18.21a1.47,1.47,0,0,0,.14.84.52.52,0,0,0,.28.13c.12,0,.38,0,.79,0h1.06a1.86,1.86,0,0,0,1.1-.22A1.1,1.1,0,0,0,90,18.1c0-.12,0-.25,0-.41,0-.31,0-.5,0-.56,0-.35.14-.52.42-.52s.5.16.5.48a1.48,1.48,0,0,1,0,.23l-.08.61a3.31,3.31,0,0,0,0,.55c0,.11,0,.28,0,.5s0,.39,0,.5c0,.36-.2.54-.61.54l-.55,0-.89-.05H86L85,20l-.33,0-.37,0c-.33,0-.5-.15-.5-.43s.12-.39.37-.39a1.37,1.37,0,0,1,.29,0l.29,0c.4,0,.61-.3.61-.9V13.56c0-.59-.21-.89-.61-.89a.88.88,0,0,0-.26,0l-.32,0a.33.33,0,0,1-.26-.11.41.41,0,0,1-.11-.28q0-.42.51-.42h.18l.64.07a7.59,7.59,0,0,0,.78.06,6.14,6.14,0,0,0,.77-.06l.55-.07h.16q.54,0,.54.42a.41.41,0,0,1-.11.28.33.33,0,0,1-.26.11l-.33,0a.77.77,0,0,0-.25,0c-.41,0-.61.3-.61.89Z"/><path class="cls-2" d="M94.32,13.56c0-.6-.21-.9-.61-.9l-.26,0-.32,0a.33.33,0,0,1-.37-.38q0-.42.54-.42h.15l.64.08a4.75,4.75,0,0,0,.77.05c.22,0,.45,0,.67,0l.78-.09.6,0a4.61,4.61,0,0,1,1.82.31,3.07,3.07,0,0,1,1.52,1.42,4.76,4.76,0,0,1,.56,2.34,4.8,4.8,0,0,1-.45,2.11,3,3,0,0,1-1.21,1.39,4.33,4.33,0,0,1-2.23.54l-.54,0-.83-.08q-.42,0-.87,0a5.67,5.67,0,0,0-.65,0l-.58.09h-.18q-.51,0-.51-.42a.39.39,0,0,1,.1-.28.37.37,0,0,1,.27-.12,2.31,2.31,0,0,1,.32,0,.9.9,0,0,0,.26,0c.4,0,.61-.3.61-.9Zm1-.12V18.5a.63.63,0,0,0,.54.67,6.53,6.53,0,0,0,1,0A2.56,2.56,0,0,0,99,18.44,3.73,3.73,0,0,0,99.74,16a4.08,4.08,0,0,0-.47-2A2.16,2.16,0,0,0,98,12.88a4.38,4.38,0,0,0-1.28-.16,3.6,3.6,0,0,0-1.16.11C95.4,12.9,95.32,13.1,95.32,13.44Z"/><path class="cls-2" d="M105.34,13.81l1,5.08,1.24-6.24c.1-.54.37-.82.8-.82a.77.77,0,0,1,.82.72l1.2,6.42,1-5a4.59,4.59,0,0,0,.11-.8c0-.33-.17-.49-.51-.49l-.31,0-.31,0c-.35,0-.52-.14-.52-.42s.17-.41.51-.41l.39,0c.66.08,1.09.12,1.3.12a4.72,4.72,0,0,0,.71-.07,5,5,0,0,1,.72-.07.38.38,0,0,1,.44.43c0,.26-.14.4-.43.4l-.22,0-.21,0a.4.4,0,0,0-.37.19,3.31,3.31,0,0,0-.27.86l-1.35,5.73a.72.72,0,0,1-.74.66c-.41,0-.67-.28-.78-.82L108.35,13,107,19.48c-.09.43-.32.65-.69.65s-.61-.22-.72-.66l-1.42-6a1.58,1.58,0,0,0-.27-.62.69.69,0,0,0-.51-.16h-.09l-.26,0c-.26,0-.39-.14-.39-.41a.37.37,0,0,1,.42-.42l.39,0a6.85,6.85,0,0,0,1.26.11q.29,0,1.32-.12l.35,0c.28,0,.43.13.43.39s-.18.44-.53.44l-.33,0-.33,0q-.42,0-.42.39a1.48,1.48,0,0,0,0,.34Z"/><path class="cls-2" d="M117.35,13.56c0-.59-.2-.89-.61-.89a.81.81,0,0,0-.25,0l-.32,0a.33.33,0,0,1-.27-.11.41.41,0,0,1-.11-.28q0-.42.51-.42h.18l1.67.12h.12l2.88-.08.62,0h.35c.41,0,.62.18.62.55,0,.06,0,.27,0,.61s0,.49,0,.71,0,.48,0,.59a4.12,4.12,0,0,1,0,.51c0,.31-.14.46-.42.46s-.43-.21-.43-.64v-.62c0-.67-.14-1.07-.42-1.19a5.57,5.57,0,0,0-1.61-.13,6.26,6.26,0,0,0-1,0,.65.65,0,0,0-.51.72v1.2c0,.32.07.5.21.55l.29,0h.48q.75,0,.75-.51a3.14,3.14,0,0,0,0-.38,3,3,0,0,1,0-.4q0-.48.42-.48c.29,0,.43.17.43.51,0,.07,0,.31-.08.75a9.2,9.2,0,0,0-.07,1c0,.16,0,.44.05.85q0,.09.06.42a2.61,2.61,0,0,1,0,.42.38.38,0,0,1-.43.43c-.28,0-.42-.17-.42-.5a3.61,3.61,0,0,1,0-.39,3.29,3.29,0,0,0,0-.38c0-.34-.23-.52-.69-.52h-.54q-.34,0-.42.12a1,1,0,0,0-.08.52v.74c0,.13,0,.3,0,.52s0,.44,0,.53c0,.32.07.52.19.6a1.58,1.58,0,0,0,.63.08h1.63a1.61,1.61,0,0,0,1-.21.94.94,0,0,0,.27-.78c0-.12,0-.3,0-.54s0-.41,0-.53c0-.36.14-.54.43-.54s.45.18.45.55c0,.14,0,.36,0,.66s0,.52,0,.66,0,.28,0,.5,0,.38,0,.5a.5.5,0,0,1-.56.56l-.42,0-.52,0-.94,0c-.68,0-1.27,0-1.76,0-.76,0-1.49,0-2.21.07h-.18c-.34,0-.51-.14-.51-.43a.34.34,0,0,1,.38-.39l.32,0,.25,0c.41,0,.61-.3.61-.9Z"/><path class="cls-2" d="M127.32,18.21a1.47,1.47,0,0,0,.14.84.52.52,0,0,0,.28.13c.12,0,.38,0,.79,0h1.06a1.86,1.86,0,0,0,1.1-.22,1.1,1.1,0,0,0,.28-.88c0-.12,0-.25,0-.41,0-.31,0-.5,0-.56,0-.35.14-.52.42-.52s.5.16.5.48a1.48,1.48,0,0,1,0,.23l-.08.61a3.31,3.31,0,0,0,0,.55c0,.11,0,.28,0,.5s0,.39,0,.5c0,.36-.2.54-.61.54l-.55,0-.89-.05h-2.82L126,20l-.33,0-.37,0c-.33,0-.5-.15-.5-.43s.12-.39.37-.39a1.3,1.3,0,0,1,.29,0l.29,0c.41,0,.61-.3.61-.9V13.56c0-.59-.2-.89-.61-.89a.77.77,0,0,0-.25,0l-.33,0a.33.33,0,0,1-.26-.11.41.41,0,0,1-.11-.28c0-.28.17-.42.52-.42h.18l.63.07a7.59,7.59,0,0,0,.78.06,6,6,0,0,0,.77-.06l.55-.07h.16q.54,0,.54.42a.41.41,0,0,1-.11.28.33.33,0,0,1-.26.11l-.33,0a.77.77,0,0,0-.25,0c-.41,0-.61.3-.61.89Z"/><path class="cls-2" d="M136.29,18.21c0,.47,0,.75.14.84a.52.52,0,0,0,.28.13c.12,0,.38,0,.79,0h1.05a1.9,1.9,0,0,0,1.11-.22,1.1,1.1,0,0,0,.27-.88c0-.12,0-.25,0-.41,0-.31,0-.5,0-.56,0-.35.14-.52.42-.52s.5.16.5.48a1.48,1.48,0,0,1,0,.23l-.08.61a3.31,3.31,0,0,0,0,.55c0,.11,0,.28,0,.5s0,.39,0,.5c0,.36-.2.54-.61.54l-.55,0-.89-.05h-2.82l-1,.05-.33,0-.37,0c-.33,0-.5-.15-.5-.43s.12-.39.37-.39a1.37,1.37,0,0,1,.29,0l.29,0c.4,0,.61-.3.61-.9V13.56c0-.59-.21-.89-.61-.89a.84.84,0,0,0-.26,0l-.32,0a.33.33,0,0,1-.26-.11.37.37,0,0,1-.11-.28q0-.42.51-.42h.18l.64.07a7.59,7.59,0,0,0,.78.06,6.14,6.14,0,0,0,.77-.06l.55-.07h.16q.54,0,.54.42a.41.41,0,0,1-.11.28.33.33,0,0,1-.27.11l-.32,0a.81.81,0,0,0-.25,0c-.41,0-.61.3-.61.89Z"/><path class="cls-3" d="M55.9,28.33a2.7,2.7,0,0,1-2.81,2.85,2.27,2.27,0,0,1-1.78-.75v2.69H50V25.55h1.24v.73a2.28,2.28,0,0,1,1.84-.79A2.7,2.7,0,0,1,55.9,28.33Zm-1.32,0a1.65,1.65,0,1,0-1.64,1.74A1.61,1.61,0,0,0,54.58,28.33Z"/><path class="cls-3" d="M56.34,28.33a3,3,0,1,1,2.95,2.85A2.8,2.8,0,0,1,56.34,28.33Zm4.6,0a1.65,1.65,0,1,0-1.65,1.74A1.62,1.62,0,0,0,60.94,28.33Z"/><path class="cls-3" d="M65.78,25.49v1.24l-.31,0a1.51,1.51,0,0,0-1.61,1.71v2.7h-1.3V25.55H63.8v.81A2.2,2.2,0,0,1,65.78,25.49Z"/><path class="cls-3" d="M70.37,30.8a2,2,0,0,1-1.25.38,1.71,1.71,0,0,1-1.91-1.87V26.63h-.92v-1h.92V24.33h1.3v1.26H70v1H68.51v2.65c0,.54.27.83.77.83a1.22,1.22,0,0,0,.73-.23Z"/><path class="cls-3" d="M72.83,25.26v.33h1.53v1H72.87v4.48h-1.3V26.63h-.91v-1h.91v-.35a1.8,1.8,0,0,1,2-1.92,2.09,2.09,0,0,1,1.18.3l-.37,1a1.26,1.26,0,0,0-.72-.23C73.11,24.37,72.83,24.67,72.83,25.26Z"/><path class="cls-3" d="M74.8,28.33a3,3,0,1,1,3,2.85A2.79,2.79,0,0,1,74.8,28.33Zm4.6,0a1.65,1.65,0,1,0-1.65,1.74A1.62,1.62,0,0,0,79.4,28.33Z"/><path class="cls-3" d="M81.15,23.39h1.3v7.72h-1.3Z"/><path class="cls-3" d="M82.9,23.86a.79.79,0,0,1,.83-.78.78.78,0,0,1,.84.75.81.81,0,0,1-.84.81A.8.8,0,0,1,82.9,23.86Zm.18,1.69h1.3v5.56h-1.3Z"/><path class="cls-3" d="M84.9,28.33a3,3,0,1,1,2.95,2.85A2.8,2.8,0,0,1,84.9,28.33Zm4.6,0a1.65,1.65,0,1,0-1.65,1.74A1.62,1.62,0,0,0,89.5,28.33Z"/></g></g></svg>